<svg width="377" height="377" viewBox="0 0 377 377" fill="none" xmlns="http://www.w3.org/2000/svg">
<path d="M315.738 175.541C301.011 69.5094 233.858 11.7812 188.5 11.7812C143.142 11.7812 75.9891 69.5094 61.2625 175.541C47.125 281.572 93.661 365.219 188.5 365.219C283.339 365.219 329.875 281.572 315.738 175.541Z" fill="#FFC294"/>
<path opacity="0.33" d="M315.738 175.541C303.956 91.8938 259.777 38.2891 219.131 19.4391C246.817 47.125 271.558 90.7156 279.216 149.622C293.942 255.653 247.406 339.3 151.978 339.3C131.361 339.3 113.1 335.177 97.7844 328.108C119.58 351.67 150.211 365.219 188.5 365.219C283.339 365.219 329.875 281.572 315.738 175.541Z" fill="#D3976E"/>
</svg>
