<svg xmlns="http://www.w3.org/2000/svg" viewBox="0 0 66 66" height="66" width="66"><path d="M43.5325 51.315c7.782500000000001 -4.2075000000000005 18.645 -3.6300000000000003 21.4225 -15.7025 3.575 -15.372499999999999 -2.42 -33 -12.457500000000001 -35.2825a9.7625 9.7625 0 0 0 -2.3649999999999998 -0.275c-9.625 0 -21.0375 12.32 -24.31 26.51 -2.75 12.0725 7.2325 16.335 12.3475 23.512500000000003l-1.2375 5.5a43.2025 43.2025 0 0 0 -3.1075 -4.235c-5.5 -6.4625 -15.18 -11.99 -12.045 -25.575000000000003a46.1175 46.1175 0 0 1 7.04 -15.785C22 4.5649999999999995 14.5475 2.75 9.2675 5.17 4.5649999999999995 7.315 1.3199999999999998 12.87 0.3025 20.3775a41.7175 41.7175 0 0 0 3.4375 22.137500000000003c5.5 12.2375 17.4075 8.3875 25.299999999999997 11.5775a40.37 40.37 0 0 1 6.407500000000001 10.2025 2.75 2.75 0 0 0 5.1975 -0.495c1.8975 -8.1125 1.21 -5.2524999999999995 2.8875 -12.485ZM36.464999999999996 18.7a2.035 2.035 0 0 1 2.75 0.6325000000000001l4.8950000000000005 7.8375 2.6399999999999997 -10.5325a2.0625 2.0625 0 0 1 2.475 -1.54 2.0625 2.0625 0 0 1 1.54 2.475l-4.0424999999999995 17.517500000000002 7.699999999999999 -4.84a2.0625 2.0625 0 0 1 2.1725000000000003 3.4925l-11.33 7.095000000000001 -0.825 3.6300000000000003a2.09 2.09 0 0 1 -2.0075 1.595 2.0625 2.0625 0 0 1 -2.0075 -2.5300000000000002l2.4475000000000002 -10.5325L35.75 21.5325a2.035 2.035 0 0 1 0.7150000000000001 -2.8325Zm-16.5 21.2575a2.0625 2.0625 0 0 1 -2.3649999999999998 3.3825 15.5925 15.5925 0 0 1 -5.5 -9.790000000000001l-5.967499999999999 -2.2a2.035 2.035 0 0 1 -1.21 -2.75 2.0625 2.0625 0 0 1 2.75 -1.2375l3.8499999999999996 1.4300000000000002a52.25 52.25 0 0 1 0 -8.855 2.0625 2.0625 0 1 1 4.0975 0.35750000000000004c-0.4675 5.445 -0.055 16.61 4.3725000000000005 19.6625Z" fill="#228e29" stroke-width="1"></path></svg>